<svg width="390" height="284" viewBox="0 0 390 284" fill="none" xmlns="http://www.w3.org/2000/svg">
    <g opacity="0.75" clip-path="url(#clip0_52_423)">
    <path d="M430 268.08C430 268.341 429.788 268.552 429.526 268.552H-7V267.608H429.526C429.788 267.608 430 267.819 430 268.08Z" fill="#E6E6E6"/>
    <path d="M262.233 202.512C265.04 202.512 267.315 200.246 267.315 197.451C267.315 194.656 265.04 192.39 262.233 192.39C259.427 192.39 257.152 194.656 257.152 197.451C257.152 200.246 259.427 202.512 262.233 202.512Z" fill="#3F3D56"/>
    <path d="M300.624 246.372C303.431 246.372 305.705 244.106 305.705 241.311C305.705 238.516 303.431 236.251 300.624 236.251C297.818 236.251 295.543 238.516 295.543 241.311C295.543 244.106 297.818 246.372 300.624 246.372Z" fill="#3F3D56"/>
    <path d="M248.402 176.926L292.438 233.72C292.438 233.72 301.471 250.59 315.585 245.529C329.7 240.468 308.246 225.285 308.246 225.285L265.339 168.491C265.339 168.491 259.693 153.229 248.402 156.362C237.11 159.494 248.402 176.926 248.402 176.926Z" fill="#FF5F4D"/>
    <path d="M322.839 216.828L315.399 220.75L296.669 194.035L307.649 188.246L322.839 216.828Z" fill="#A0616A"/>
    <path d="M297.26 230.1C297.235 230.61 297.779 231.929 298.019 232.381C298.758 233.77 300.487 234.3 301.881 233.564L324.921 221.417C325.872 220.915 326.235 219.74 325.732 218.793L325.224 217.837C325.224 217.837 324.837 214.365 320.61 212.063C320.61 212.063 319.166 216.372 312.501 214.329L309.984 212.688L304.283 224.369L299.463 227.72C298.408 228.453 297.323 228.82 297.26 230.1Z" fill="#2F2E41"/>
    <path d="M286.142 169.032L278.702 172.953L259.972 146.238L270.952 140.449L286.142 169.032Z" fill="#A0616A"/>
    <path d="M260.563 182.303C260.538 182.813 261.082 184.132 261.322 184.584C262.061 185.973 263.79 186.503 265.184 185.767L288.224 173.62C289.175 173.118 289.538 171.943 289.035 170.996L288.527 170.04C288.527 170.04 288.14 166.568 283.913 164.266C283.913 164.266 282.469 168.575 275.804 166.532L273.287 164.891L267.586 176.572L262.766 179.923C261.711 180.656 260.626 181.023 260.563 182.303Z" fill="#2F2E41"/>
    <path d="M391.465 216.688C390.988 215.887 388.926 216.744 388.547 216.018C388.169 215.294 390.085 214.191 391.18 211.671C391.377 211.217 392.621 208.353 391.7 207.47C389.954 205.795 381.967 212.706 379.172 210.445C378.558 209.948 378.13 208.957 376.273 207.349C375.534 206.709 375.088 206.42 374.656 206.527C374.042 206.68 373.994 207.497 373.336 209.105C372.35 211.516 371.766 211.37 371.192 213.293C370.765 214.721 370.863 215.551 370.361 215.713C369.65 215.942 368.996 214.427 368.096 214.563C367.177 214.701 366.622 216.465 366.447 217.785C366.117 220.263 367.031 221.898 367.537 223.617C368.087 225.485 368.414 228.326 367.143 232.348L354.566 267.643C357.343 260.4 365.383 240.547 368.761 233.17C369.736 231.04 370.813 228.88 373.024 228.027C375.153 227.206 378.076 227.696 381.803 226.802C382.238 226.698 383.446 226.391 383.598 225.684C383.724 225.099 383.014 224.772 383.123 224.224C383.269 223.489 384.666 223.48 386.383 222.632C387.594 222.035 388.348 221.323 388.997 220.712C389.192 220.528 392.099 217.753 391.465 216.688Z" fill="#F2F2F2"/>
    <path d="M341.983 235.268C341.451 235.27 341.278 236.525 340.811 236.501C340.345 236.477 340.354 235.222 339.429 233.96C339.262 233.732 338.209 232.298 337.508 232.493C336.179 232.863 337.281 238.762 335.36 239.476C334.938 239.633 334.326 239.556 332.998 240C332.469 240.176 332.198 240.311 332.126 240.553C332.024 240.897 332.413 241.157 333.015 241.942C333.919 243.12 333.679 243.363 334.461 244.199C335.041 244.82 335.479 245.011 335.413 245.304C335.321 245.717 334.386 245.599 334.193 246.079C333.996 246.568 334.705 247.348 335.305 247.815C336.431 248.691 337.5 248.716 338.493 248.964C339.573 249.234 341.067 249.894 342.682 251.676L356.446 268.008C353.678 264.561 346.215 254.902 343.554 251.122C342.786 250.031 342.032 248.881 342.25 247.555C342.46 246.277 343.545 244.989 344.179 242.909C344.253 242.666 344.451 241.988 344.146 241.709C343.894 241.479 343.528 241.732 343.29 241.521C342.97 241.237 343.369 240.551 343.446 239.467C343.501 238.703 343.368 238.129 343.254 237.636C343.219 237.487 342.691 235.265 341.983 235.268Z" fill="#F2F2F2"/>
    <path d="M352.597 237.641L352.276 234.791L352.422 234.575C353.1 233.576 353.446 232.6 353.45 231.674C353.45 231.527 353.443 231.38 353.437 231.23C353.409 230.635 353.374 229.896 353.761 229.035C353.978 228.555 354.587 227.443 355.503 227.58C355.75 227.615 355.937 227.728 356.078 227.86C356.099 227.827 356.12 227.794 356.143 227.758C356.428 227.324 356.654 227.139 356.872 226.96C357.039 226.822 357.212 226.68 357.483 226.345C357.601 226.197 357.694 226.068 357.772 225.959C358.009 225.63 358.319 225.238 358.864 225.245C359.447 225.273 359.753 225.753 359.955 226.071C360.316 226.638 360.48 227.046 360.588 227.317C360.628 227.417 360.673 227.528 360.696 227.562C360.883 227.838 362.411 227.58 362.986 227.487C364.279 227.272 365.397 227.086 365.858 227.898C366.188 228.479 365.943 229.247 365.107 230.242C364.847 230.551 364.57 230.787 364.324 230.971C364.527 231.092 364.71 231.278 364.784 231.57C364.958 232.26 364.362 232.953 363.013 233.63C362.678 233.799 362.226 234.025 361.594 234.133C361.297 234.184 361.029 234.197 360.799 234.204C360.794 234.336 360.763 234.479 360.682 234.626C360.446 235.059 359.952 235.266 359.209 235.216C358.391 235.174 357.718 235.018 357.123 234.882C356.605 234.764 356.158 234.663 355.807 234.687C355.156 234.739 354.654 235.258 354.066 235.931L352.597 237.641Z" fill="#F2F2F2"/>
    <path d="M354.083 220.673L351.397 221.704L351.15 221.618C350.008 221.219 348.973 221.133 348.072 221.364C347.929 221.401 347.788 221.445 347.644 221.49C347.074 221.667 346.365 221.888 345.43 221.733C344.908 221.646 343.674 221.341 343.575 220.424C343.546 220.178 343.608 219.969 343.701 219.799C343.663 219.788 343.626 219.775 343.585 219.763C343.092 219.598 342.854 219.427 342.625 219.263C342.449 219.137 342.268 219.006 341.873 218.831C341.7 218.753 341.551 218.697 341.426 218.649C341.046 218.505 340.587 218.306 340.455 217.778C340.334 217.21 340.723 216.794 340.98 216.518C341.439 216.026 341.794 215.765 342.03 215.591C342.116 215.528 342.213 215.457 342.241 215.426C342.461 215.175 341.823 213.769 341.586 213.238C341.05 212.048 340.586 211.017 341.258 210.367C341.738 209.902 342.546 209.943 343.724 210.496C344.091 210.669 344.39 210.876 344.631 211.066C344.697 210.839 344.831 210.616 345.096 210.471C345.722 210.128 346.546 210.527 347.546 211.655C347.795 211.935 348.129 212.312 348.395 212.894C348.52 213.167 348.6 213.423 348.664 213.642C348.794 213.613 348.941 213.607 349.104 213.647C349.585 213.765 349.911 214.188 350.051 214.917C350.217 215.716 350.237 216.404 350.256 217.011C350.272 217.541 350.288 217.997 350.4 218.329C350.616 218.943 351.247 219.294 352.05 219.691L354.083 220.673Z" fill="#F2F2F2"/>
    <path d="M352.597 212.277L352.276 209.427L352.422 209.211C353.1 208.212 353.446 207.236 353.45 206.31C353.45 206.163 353.443 206.015 353.437 205.865C353.409 205.271 353.374 204.532 353.761 203.671C353.978 203.19 354.587 202.078 355.503 202.216C355.75 202.25 355.937 202.363 356.078 202.495C356.099 202.462 356.12 202.429 356.143 202.393C356.428 201.96 356.654 201.774 356.872 201.595C357.039 201.458 357.212 201.316 357.483 200.98C357.601 200.833 357.694 200.704 357.772 200.595C358.009 200.266 358.319 199.874 358.864 199.881C359.447 199.908 359.753 200.388 359.955 200.706C360.316 201.273 360.48 201.682 360.588 201.953C360.628 202.052 360.673 202.164 360.696 202.198C360.883 202.473 362.411 202.216 362.986 202.122C364.279 201.908 365.397 201.722 365.858 202.534C366.188 203.115 365.943 203.882 365.107 204.877C364.847 205.187 364.57 205.422 364.324 205.607C364.527 205.728 364.71 205.914 364.784 206.205C364.958 206.896 364.362 207.588 363.013 208.265C362.678 208.435 362.226 208.66 361.594 208.769C361.297 208.82 361.029 208.832 360.799 208.839C360.794 208.971 360.763 209.114 360.682 209.262C360.446 209.695 359.952 209.902 359.209 209.852C358.391 209.809 357.718 209.654 357.123 209.518C356.605 209.399 356.158 209.299 355.807 209.322C355.156 209.374 354.654 209.893 354.066 210.566L352.597 212.277Z" fill="#F2F2F2"/>
    <path d="M355.524 267.596L354.924 267.222L354.225 267.302C354.214 267.237 354.176 267.088 354.119 266.856C353.806 265.582 352.852 261.704 352.056 255.597C351.501 251.333 351.186 246.95 351.122 242.568C351.057 238.178 351.265 234.854 351.432 232.183C351.559 230.169 351.712 228.251 351.863 226.382C352.263 221.389 352.641 216.673 352.36 211.452C352.298 210.287 352.167 207.861 350.744 205.279C349.919 203.782 348.782 202.453 347.364 201.33L348.246 200.226C349.81 201.467 351.068 202.94 351.985 204.602C353.563 207.464 353.705 210.108 353.774 211.378C354.06 216.691 353.678 221.453 353.273 226.493C353.124 228.355 352.97 230.265 352.844 232.272C352.679 234.918 352.472 238.212 352.536 242.546C352.6 246.876 352.911 251.205 353.459 255.415C354.245 261.445 355.185 265.265 355.494 266.52C355.658 267.19 355.693 267.331 355.524 267.596Z" fill="#F2F2F2"/>
    <path d="M344.77 203.569C344.712 203.569 344.653 203.567 344.594 203.563C343.389 203.499 342.273 202.78 341.277 201.429C340.81 200.793 340.571 200.068 340.094 198.622C340.02 198.399 339.661 197.267 339.443 195.711C339.3 194.694 339.318 194.269 339.52 193.893C339.745 193.475 340.108 193.183 340.517 192.986C340.499 192.852 340.514 192.713 340.572 192.571C340.813 191.983 341.454 192.06 341.801 192.097C341.977 192.119 342.196 192.148 342.432 192.136C342.804 192.118 343.003 192.008 343.306 191.843C343.595 191.685 343.955 191.488 344.489 191.379C345.542 191.16 346.424 191.458 346.715 191.555C348.245 192.063 348.999 193.248 349.873 194.62C350.047 194.895 350.644 195.897 351.039 197.27C351.323 198.261 351.283 198.701 351.198 199.029C351.024 199.702 350.613 200.087 349.569 200.938C348.479 201.828 347.931 202.274 347.462 202.545C346.368 203.174 345.682 203.569 344.77 203.569Z" fill="#F2F2F2"/>
    <path d="M111.05 177.483C110.21 176.07 106.572 177.582 105.903 176.301C105.237 175.024 108.617 173.078 110.547 168.634C110.896 167.832 113.09 162.781 111.466 161.223C108.387 158.269 94.2973 170.46 89.3667 166.47C88.2845 165.595 87.5286 163.847 84.2536 161.009C82.9507 159.88 82.1629 159.37 81.4005 159.56C80.3186 159.829 80.2329 161.271 79.0728 164.107C77.333 168.359 76.3041 168.103 75.2904 171.495C74.5379 174.014 74.7098 175.478 73.8243 175.764C72.5713 176.167 71.4179 173.496 69.8299 173.735C68.2095 173.979 67.2298 177.09 66.9203 179.419C66.3396 183.789 67.951 186.673 68.8442 189.705C69.8147 193 70.3908 198.012 68.1493 205.107L45.9644 267.364C50.8621 254.589 65.0435 219.569 71.0025 206.556C72.7227 202.799 74.6221 198.988 78.5222 197.485C82.277 196.037 87.4338 196.901 94.0081 195.324C94.7759 195.139 96.9066 194.599 97.1748 193.351C97.3965 192.319 96.1432 191.743 96.3358 190.777C96.5941 189.48 99.0586 189.464 102.087 187.969C104.223 186.914 105.553 185.66 106.697 184.581C107.042 184.256 112.17 179.362 111.05 177.483Z" fill="#F2F2F2"/>
    <path d="M23.7681 210.257C22.8296 210.261 22.5252 212.475 21.7007 212.432C20.8792 212.39 20.8956 210.176 19.2625 207.95C18.9681 207.548 17.1122 205.018 15.8755 205.363C13.5314 206.015 15.4736 216.421 12.085 217.68C11.3414 217.956 10.262 217.821 7.91867 218.604C6.98644 218.915 6.50796 219.153 6.38141 219.58C6.20186 220.187 6.88777 220.645 7.95033 222.03C9.54387 224.107 9.12043 224.536 10.4998 226.011C11.5238 227.105 12.295 227.444 12.1801 227.959C12.0175 228.688 10.3683 228.481 10.0279 229.326C9.68068 230.189 10.9308 231.565 11.9891 232.389C13.9751 233.933 15.8611 233.978 17.6131 234.416C19.517 234.892 22.1528 236.057 25.0021 239.2L49.2796 268.008C44.3976 261.928 31.2327 244.891 26.5394 238.223C25.1845 236.298 23.8548 234.27 24.2391 231.93C24.609 229.676 26.5229 227.405 27.6424 223.736C27.7732 223.307 28.1219 222.11 27.5842 221.619C27.1397 221.213 26.4942 221.659 26.0735 221.286C25.5092 220.786 26.2124 219.576 26.3492 217.664C26.4457 216.316 26.2115 215.304 26.0101 214.433C25.9494 214.171 25.0173 210.252 23.7681 210.257Z" fill="#F2F2F2"/>
    <path d="M42.4898 214.443L41.9244 209.416L42.1828 209.035C43.3781 207.273 43.9874 205.552 43.9947 203.918C43.9959 203.658 43.9838 203.399 43.9716 203.134C43.9228 202.085 43.8619 200.782 44.5443 199.262C44.9269 198.415 46.0017 196.454 47.6175 196.697C48.0525 196.757 48.3815 196.956 48.6313 197.189C48.6678 197.131 48.7056 197.073 48.7458 197.01C49.2491 196.245 49.6475 195.917 50.0314 195.602C50.3263 195.359 50.6309 195.109 51.1086 194.517C51.3181 194.257 51.4814 194.029 51.6191 193.837C52.0371 193.257 52.583 192.565 53.5456 192.577C54.5741 192.626 55.1127 193.473 55.4697 194.034C56.107 195.034 56.3958 195.755 56.5871 196.233C56.6566 196.408 56.7358 196.604 56.776 196.665C57.1074 197.151 59.8017 196.697 60.8167 196.532C63.0966 196.153 65.0694 195.825 65.8822 197.257C66.4646 198.282 66.0321 199.636 64.5576 201.391C64.0982 201.937 63.6096 202.352 63.1758 202.678C63.5352 202.891 63.8569 203.219 63.9873 203.734C64.2944 204.952 63.2428 206.173 60.863 207.367C60.272 207.666 59.4763 208.064 58.3613 208.256C57.8361 208.346 57.3633 208.367 56.9588 208.38C56.9503 208.613 56.8954 208.865 56.7529 209.125C56.3349 209.889 55.4649 210.253 54.1537 210.166C52.711 210.091 51.5229 209.817 50.4749 209.576C49.5598 209.367 48.7714 209.19 48.1524 209.232C47.0046 209.324 46.1199 210.239 45.0817 211.426L42.4898 214.443Z" fill="#F2F2F2"/>
    <path d="M45.1127 184.512L40.374 186.332L39.9383 186.179C37.9237 185.475 36.0978 185.324 34.5094 185.732C34.2568 185.796 34.0077 185.874 33.7538 185.953C32.7478 186.266 31.4973 186.655 29.8486 186.383C28.9288 186.229 26.7514 185.691 26.5773 184.073C26.5259 183.639 26.6357 183.271 26.7987 182.971C26.7328 182.951 26.6667 182.929 26.5952 182.907C25.725 182.616 25.3057 182.315 24.9018 182.025C24.5913 181.803 24.2712 181.573 23.5749 181.263C23.2695 181.127 23.0064 181.027 22.7853 180.943C22.1159 180.688 21.3055 180.337 21.0732 179.407C20.8595 178.403 21.5456 177.67 21.9996 177.183C22.8092 176.316 23.436 175.855 23.8519 175.549C24.004 175.438 24.1749 175.312 24.2236 175.257C24.611 174.815 23.4868 172.334 23.0691 171.398C22.123 169.298 21.3044 167.48 22.4891 166.334C23.3361 165.513 24.7613 165.586 26.8397 166.562C27.4866 166.866 28.0137 167.231 28.4396 167.567C28.5559 167.166 28.7925 166.773 29.2592 166.517C30.3647 165.912 31.8172 166.615 33.5807 168.605C34.0205 169.099 34.609 169.765 35.078 170.79C35.2985 171.273 35.4396 171.723 35.554 172.11C35.7825 172.059 36.0416 172.048 36.33 172.119C37.1786 172.328 37.7529 173.074 38.0006 174.359C38.2934 175.768 38.3284 176.983 38.3608 178.053C38.3902 178.988 38.4181 179.792 38.6152 180.378C38.996 181.461 40.1091 182.081 41.5252 182.78L45.1127 184.512Z" fill="#F2F2F2"/>
    <path d="M42.4898 169.702L41.9244 164.675L42.1828 164.294C43.3781 162.532 43.9874 160.811 43.9947 159.177C43.9959 158.917 43.9838 158.658 43.9716 158.393C43.9228 157.344 43.8619 156.041 44.5443 154.521C44.9269 153.674 46.0017 151.713 47.6175 151.956C48.0525 152.016 48.3815 152.215 48.6313 152.448C48.6678 152.39 48.7056 152.332 48.7458 152.269C49.2491 151.504 49.6475 151.177 50.0314 150.861C50.3263 150.618 50.6309 150.368 51.1086 149.776C51.3181 149.516 51.4814 149.288 51.6191 149.096C52.0371 148.516 52.583 147.824 53.5456 147.836C54.5741 147.885 55.1127 148.732 55.4697 149.293C56.107 150.293 56.3958 151.014 56.5871 151.492C56.6566 151.667 56.7358 151.863 56.776 151.924C57.1074 152.41 59.8017 151.956 60.8167 151.791C63.0966 151.412 65.0694 151.084 65.8822 152.516C66.4646 153.541 66.0321 154.895 64.5576 156.65C64.0982 157.196 63.6096 157.611 63.1758 157.937C63.5352 158.15 63.8569 158.478 63.9873 158.993C64.2944 160.211 63.2428 161.432 60.863 162.626C60.272 162.925 59.4763 163.323 58.3613 163.515C57.8361 163.605 57.3633 163.626 56.9588 163.639C56.9503 163.872 56.8954 164.124 56.7529 164.384C56.3349 165.148 55.4649 165.512 54.1537 165.425C52.711 165.35 51.5229 165.076 50.4749 164.835C49.5598 164.626 48.7714 164.449 48.1524 164.491C47.0046 164.583 46.1199 165.498 45.0817 166.685L42.4898 169.702Z" fill="#F2F2F2"/>
    <path d="M47.654 267.282L46.5963 266.621L45.3632 266.762C45.3436 266.648 45.2766 266.386 45.1755 265.976C44.6235 263.728 42.9407 256.888 41.537 246.115C40.5572 238.595 40.0028 230.864 39.8883 223.133C39.7737 215.39 40.1417 209.528 40.4366 204.816C40.6596 201.262 40.9301 197.879 41.1958 194.582C41.9025 185.776 42.569 177.457 42.0731 168.248C41.9634 166.192 41.7331 161.913 39.2229 157.359C37.7668 154.718 35.7611 152.373 33.2606 150.392L34.8155 148.446C37.5755 150.635 39.7944 153.232 41.4114 156.165C44.1946 161.214 44.4456 165.877 44.5662 168.117C45.0707 177.489 44.3969 185.888 43.6828 194.779C43.4196 198.063 43.1491 201.432 42.9273 204.971C42.6348 209.639 42.2705 215.45 42.3838 223.094C42.4959 230.733 43.0443 238.369 44.0106 245.795C45.3973 256.431 47.0557 263.17 47.6004 265.383C47.8904 266.566 47.9513 266.813 47.654 267.282Z" fill="#F2F2F2"/>
    <path d="M28.6838 154.342C28.5815 154.342 28.4779 154.339 28.3731 154.332C26.248 154.218 24.28 152.951 22.5229 150.567C21.6992 149.446 21.2775 148.167 20.4367 145.615C20.3064 145.222 19.6727 143.227 19.2877 140.482C19.0354 138.688 19.0671 137.938 19.4241 137.275C19.8202 136.537 20.4611 136.023 21.1825 135.675C21.1508 135.438 21.1764 135.192 21.28 134.942C21.7052 133.906 22.836 134.042 23.4478 134.107C23.7573 134.146 24.1435 134.197 24.5603 134.175C25.2159 134.144 25.568 133.95 26.1017 133.658C26.6123 133.379 27.2472 133.032 28.1891 132.84C30.0462 132.454 31.6022 132.979 32.1152 133.151C34.8143 134.047 36.1449 136.137 37.6852 138.557C37.9922 139.042 39.0463 140.809 39.742 143.232C40.2441 144.979 40.1734 145.756 40.0223 146.334C39.7152 147.521 38.9902 148.201 37.149 149.701C35.2261 151.271 34.2611 152.058 33.4325 152.536C31.5035 153.645 30.2923 154.342 28.6838 154.342Z" fill="#F2F2F2"/>
    <path d="M312.763 112.26L285.099 156.683L313.892 197.17L302.6 202.793C302.6 202.793 265.903 163.993 264.774 158.932C263.645 153.871 276.066 118.445 276.066 118.445H252.485L274.936 146.561L264.21 153.309L225.819 116.196C225.819 116.196 221.302 108.722 225.819 105.992C230.335 103.263 270.835 85.2685 270.835 85.2685L312.763 112.26Z" fill="#2F2E41"/>
    <path d="M249.248 191.265C252.055 191.265 254.33 188.999 254.33 186.204C254.33 183.409 252.055 181.143 249.248 181.143C246.442 181.143 244.167 183.409 244.167 186.204C244.167 188.999 246.442 191.265 249.248 191.265Z" fill="#3F3D56"/>
    <path d="M287.357 239.906C290.163 239.906 292.438 237.64 292.438 234.845C292.438 232.05 290.163 229.784 287.357 229.784C284.551 229.784 282.276 232.05 282.276 234.845C282.276 237.64 284.551 239.906 287.357 239.906Z" fill="#3F3D56"/>
    <path d="M245.296 45.6251L253.765 29.8802C253.765 29.8802 279.704 34.9411 287.906 45.6251C296.108 56.3091 310.787 84.425 310.787 84.425C310.787 84.425 322.078 106.918 311.916 119.289C301.753 131.66 288.768 106.918 288.768 106.918L270.137 86.1119L267.879 85.5496L245.296 45.6251Z" fill="#FF5F4D"/>
    <path d="M232.413 111.746C233.135 110.001 234.266 108.454 235.712 107.234L247.941 74.6351L257.403 78.2656L243.457 110.537C243.568 112.42 243.224 114.303 242.455 116.027C240.588 120.369 236.828 122.928 234.055 121.746C231.282 120.563 230.547 116.086 232.413 111.746Z" fill="#A0616A"/>
    <path d="M251.789 46.4686L274.09 53.4976L255.741 85.2685L241.627 84.1439L251.789 46.4686Z" fill="#FF5F4D"/>
    <path d="M199.682 72.6514C201.46 71.9995 203.369 71.7813 205.249 72.0151L237.618 58.9128L241.341 68.3075L208.051 79.9291C206.735 81.2853 205.111 82.3077 203.316 82.9107C198.844 84.4815 194.407 83.4576 193.404 80.6241C192.401 77.7907 195.211 74.221 199.682 72.6514Z" fill="#A0616A"/>
    <path d="M253.2 39.4397L269.594 57.748L235.04 71.8292L226.317 60.7208L253.2 39.4397Z" fill="#FF5F4D"/>
    <path d="M120.531 159.425C120.549 159.428 120.576 159.432 120.61 159.438C121.261 159.545 125.201 160.151 129.173 158.644C130.856 158.005 130.282 157.846 134.029 155.627C138.423 153.024 139.55 153.043 139.877 151.829C140.531 149.406 137.042 145.598 134.733 145.848C134.125 145.914 133.474 146.275 132.462 146.031C132.239 145.977 131.265 145.741 130.791 144.939C130.367 144.222 130.726 143.706 130.555 143.118C130.108 141.576 126.381 140.807 123.114 141.35C121.235 141.663 119.773 142.517 116.926 144.212C111.971 147.161 109.494 148.636 108.937 150.896C108.409 153.037 109.676 153.96 108.755 156.253C107.897 158.388 106.535 158.245 106.066 159.972C105.311 162.751 108.112 165.801 109.278 167.071C110.557 168.464 111.78 169.229 113.404 170.244C115.442 171.517 116.461 172.154 117.686 172.09C119.907 171.972 126.507 172.372 126.594 170.541C126.626 169.855 134.631 170.417 130.689 163.03C130.206 162.124 120.734 163.092 120.609 162.571" fill="#2F2E41"/>
    <path d="M122.333 167.559C129.244 167.559 134.847 161.978 134.847 155.095C134.847 148.211 129.244 142.631 122.333 142.631C115.421 142.631 109.819 148.211 109.819 155.095C109.819 161.978 115.421 167.559 122.333 167.559Z" fill="#FFB6B6"/>
    <path d="M78.4022 255.379C78.4022 255.379 60.8424 249.802 60.0789 252.591C59.3155 255.379 72.5489 259.941 82.983 259.941C93.4171 259.941 159.076 259.434 159.076 259.434C159.076 259.434 177.399 253.605 172.054 252.591C166.71 251.577 78.4022 255.379 78.4022 255.379Z" fill="#FF5F4D"/>
    <path d="M86.5459 268.052C89.2163 268.052 91.3812 265.896 91.3812 263.236C91.3812 260.577 89.2163 258.42 86.5459 258.42C83.8754 258.42 81.7106 260.577 81.7106 263.236C81.7106 265.896 83.8754 268.052 86.5459 268.052Z" fill="#3F3D56"/>
    <path d="M149.405 268.052C152.075 268.052 154.24 265.896 154.24 263.236C154.24 260.577 152.075 258.42 149.405 258.42C146.734 258.42 144.57 260.577 144.57 263.236C144.57 265.896 146.734 268.052 149.405 268.052Z" fill="#3F3D56"/>
    <path d="M129.555 170.718L114.881 169.335L109.704 173.76C104.993 175.501 101.83 179.935 101.73 184.939L100.925 225.342L138.589 227.623C138.589 227.623 134.517 218.245 137.317 216.471C140.116 214.696 141.827 190.363 139.48 186.434C137.132 182.505 135.79 177.942 135.79 177.942L129.555 170.718Z" fill="#E6E6E6"/>
    <path d="M101.942 224.075L97.3617 235.481C97.3617 235.481 90.236 251.45 97.1072 256.013C103.978 260.575 143.679 257.026 143.679 257.026C143.679 257.026 147.496 253.731 149.278 246.887C151.059 240.044 139.861 229.144 139.861 229.144L138.589 227.623L101.942 224.075Z" fill="#2F2E41"/>
    <path d="M151.21 253.738C151.96 257.677 154.608 260.485 157.125 260.009C159.641 259.534 161.073 255.956 160.323 252.015C160.045 250.437 159.391 248.949 158.417 247.674L155.03 231.025L147.22 232.774L151.388 249.002C150.95 250.544 150.889 252.168 151.21 253.738Z" fill="#FFB6B6"/>
    <path d="M129.007 196.507C129.007 196.507 131.469 199.368 136.033 200.008C140.597 200.648 147.729 242.714 147.729 242.714L157.522 238.688C157.522 238.688 152.313 200.482 150.861 197.904C149.41 195.326 134.076 176.083 134.076 176.083L129.007 196.507Z" fill="#E6E6E6"/>
    <path d="M89.8424 254.863C89.0929 258.802 86.4449 261.609 83.9282 261.134C81.4115 260.658 79.9797 257.08 80.73 253.14C81.008 251.562 81.6614 250.073 82.6356 248.798L86.0229 232.149L93.8333 233.899L89.6647 250.126C90.1029 251.668 90.1638 253.293 89.8424 254.863Z" fill="#FFB6B6"/>
    <path d="M112.046 197.632C112.046 197.632 109.584 200.493 105.02 201.133C100.456 201.773 93.3236 243.838 93.3236 243.838L83.5308 239.812C83.5308 239.812 88.7395 201.606 90.1915 199.028C91.6434 196.45 106.977 177.207 106.977 177.207L112.046 197.632Z" fill="#E6E6E6"/>
    <path d="M132.103 246.49L124.617 239.99L106.991 264.727L112.063 269.131L132.103 246.49Z" fill="#FFB6B6"/>
    <path d="M144.442 253.478C144.442 253.478 157.93 231.172 158.439 221.54C158.948 211.908 150.55 210.641 147.496 212.668C144.442 214.696 111.493 251.995 111.493 251.995L121.794 258.886L144.081 241.208L144.442 253.478Z" fill="#2F2E41"/>
    <path d="M106.439 247.755L113.655 240.96L132.269 264.967L127.38 269.572L106.439 247.755Z" fill="#FFB6B6"/>
    <path d="M94.8168 253.478C94.8168 253.478 81.3289 231.172 80.8199 221.54C80.3109 211.908 88.7091 210.641 91.763 212.668C94.8168 214.696 125.333 253.478 125.333 253.478L117.465 258.886L95.1785 241.208L94.8168 253.478Z" fill="#2F2E41"/>
    <path d="M108.941 260.448C108.941 260.448 99.5249 265.264 100.034 266.532C100.543 267.799 101.052 272.615 101.052 272.615C101.052 272.615 93.9261 277.431 100.288 280.726C106.651 284.021 111.486 283.768 112.249 281.74C113.013 279.712 113.267 273.882 113.267 273.882L116.576 265.518L108.941 260.448Z" fill="#2F2E41"/>
    <path d="M130.064 261.209C130.064 261.209 139.48 266.025 138.971 267.292C138.462 268.559 137.953 273.376 137.953 273.376C137.953 273.376 145.079 278.192 138.716 281.487C132.354 284.782 127.519 284.528 126.755 282.501C125.992 280.473 125.737 274.643 125.737 274.643L122.429 266.278L130.064 261.209Z" fill="#2F2E41"/>
    <path d="M118.302 155.901C118.32 155.904 118.348 155.909 118.381 155.914C119.033 156.022 122.972 156.627 126.944 155.12C128.627 154.482 128.053 154.323 131.8 152.103C136.194 149.501 137.322 149.519 137.649 148.306C138.302 145.883 134.814 142.074 132.505 142.325C131.897 142.391 131.246 142.752 130.233 142.507C130.011 142.453 129.037 142.218 128.562 141.415C128.138 140.699 128.497 140.182 128.327 139.595C127.88 138.053 124.153 137.283 120.885 137.827C119.006 138.14 117.544 138.993 114.697 140.688C109.743 143.638 107.265 145.113 106.708 147.372C106.181 149.514 107.447 150.437 106.526 152.73C105.668 154.864 104.306 154.722 103.837 156.449C103.083 159.227 105.883 162.277 107.049 163.548C108.328 164.941 109.551 165.705 111.175 166.72C113.213 167.994 114.232 168.631 115.457 168.566C117.678 168.449 119.888 166.444 119.974 164.613C120.006 163.927 119.719 163.721 119.007 161.362C118.711 160.38 118.506 159.568 118.381 159.048" fill="#2F2E41"/>
    <path d="M246.426 13.6506C250.21 13.6506 253.278 10.5948 253.278 6.82529C253.278 3.05579 250.21 0 246.426 0C242.641 0 239.573 3.05579 239.573 6.82529C239.573 10.5948 242.641 13.6506 246.426 13.6506Z" fill="#2F2E41"/>
    <path d="M235.9 37.4217C244.142 37.4217 250.823 30.7669 250.823 22.5578C250.823 14.3487 244.142 7.69397 235.9 7.69397C227.658 7.69397 220.976 14.3487 220.976 22.5578C220.976 30.7669 227.658 37.4217 235.9 37.4217Z" fill="#A0616A"/>
    <path d="M246.603 35.7528C248.391 35.9119 251.309 31.3567 251.179 26.9451C251.096 24.1071 253.569 23.549 253.753 19.889C253.86 17.7564 250.571 17.0914 250.345 15.3809C249.936 12.2816 247.929 10.1961 247.678 9.94258C245.514 7.75408 243.987 8.46554 241.443 5.92912C239.911 4.40208 240.304 3.98372 239.272 3.30639C236.295 1.35159 230.945 3.47022 227.746 6.32411C226.639 7.31167 222.512 6.23232 220.71 9.02109C218.586 12.3068 219.079 19.0075 219.99 19.8918C220.543 20.4291 221.807 19.1165 225.231 18.2741C228.402 17.4941 225.411 21.3512 229.077 20.7039C233.411 19.9385 234.26 18.6251 235.883 19.4128C237.599 20.2456 238.94 22.8242 238.551 24.8512C238.357 25.8571 237.797 26.4179 238.113 26.9294C238.69 27.8633 239.351 26.9474 240.09 27.8846C240.95 28.9746 238.813 31.771 239.216 32.0411C239.297 32.0955 239.542 32.0884 241.849 29.8789C242.77 28.9966 243.04 28.4548 243.22 28.538C243.512 28.6726 245.424 30.4467 244.694 31.8477C243.558 34.028 245.012 34.0959 244.694 35.5637C244.366 37.0779 245.467 35.6516 246.603 35.7528Z" fill="#2F2E41"/>
    </g>
    <defs>
    <clipPath id="clip0_52_423">
    <rect width="437" height="284" fill="white" transform="translate(-7)"/>
    </clipPath>
    </defs>
    </svg>
    