<svg width="98" height="117" viewBox="0 0 98 117" fill="none" xmlns="http://www.w3.org/2000/svg">
<path d="M7.91477 103.818H9.14773V110.56C9.14773 111.256 8.98367 111.877 8.65554 112.424C8.33073 112.968 7.87169 113.397 7.27841 113.712C6.68513 114.023 5.98911 114.179 5.19034 114.179C4.39157 114.179 3.69555 114.023 3.10227 113.712C2.509 113.397 2.0483 112.968 1.72017 112.424C1.39536 111.877 1.23295 111.256 1.23295 110.56V103.818H2.46591V110.46C2.46591 110.957 2.57528 111.4 2.79403 111.788C3.01278 112.172 3.32434 112.475 3.72869 112.697C4.13636 112.916 4.62358 113.026 5.19034 113.026C5.7571 113.026 6.24432 112.916 6.65199 112.697C7.05966 112.475 7.37121 112.172 7.58665 111.788C7.8054 111.4 7.91477 110.957 7.91477 110.46V103.818ZM11.4508 116.864V106.364H12.5843V107.577H12.7235C12.8097 107.444 12.929 107.275 13.0815 107.07C13.2373 106.861 13.4593 106.675 13.7477 106.513C14.0394 106.347 14.4338 106.264 14.9309 106.264C15.5739 106.264 16.1407 106.425 16.6312 106.746C17.1217 107.068 17.5046 107.524 17.7797 108.114C18.0547 108.704 18.1923 109.4 18.1923 110.202C18.1923 111.01 18.0547 111.711 17.7797 112.305C17.5046 112.895 17.1234 113.352 16.6362 113.677C16.149 113.998 15.5872 114.159 14.9508 114.159C14.4603 114.159 14.0675 114.078 13.7725 113.915C13.4776 113.75 13.2505 113.562 13.0914 113.354C12.9324 113.142 12.8097 112.966 12.7235 112.827H12.6241V116.864H11.4508ZM12.6042 110.182C12.6042 110.759 12.6887 111.267 12.8578 111.708C13.0268 112.146 13.2737 112.489 13.5985 112.737C13.9234 112.982 14.3211 113.105 14.7917 113.105C15.2823 113.105 15.6916 112.976 16.0197 112.717C16.3511 112.455 16.5997 112.104 16.7654 111.663C16.9345 111.219 17.019 110.725 17.019 110.182C17.019 109.645 16.9361 109.161 16.7704 108.73C16.608 108.296 16.3611 107.953 16.0297 107.701C15.7015 107.446 15.2889 107.318 14.7917 107.318C14.3145 107.318 13.9134 107.439 13.5886 107.681C13.2638 107.92 13.0185 108.254 12.8528 108.685C12.6871 109.113 12.6042 109.612 12.6042 110.182ZM21.1554 103.818V114H19.9821V103.818H21.1554ZM26.4066 114.159C25.7172 114.159 25.1123 113.995 24.592 113.667C24.0749 113.339 23.6706 112.88 23.3789 112.29C23.0906 111.7 22.9464 111.01 22.9464 110.222C22.9464 109.426 23.0906 108.732 23.3789 108.138C23.6706 107.545 24.0749 107.085 24.592 106.756C25.1123 106.428 25.7172 106.264 26.4066 106.264C27.096 106.264 27.6992 106.428 28.2163 106.756C28.7366 107.085 29.141 107.545 29.4293 108.138C29.721 108.732 29.8668 109.426 29.8668 110.222C29.8668 111.01 29.721 111.7 29.4293 112.29C29.141 112.88 28.7366 113.339 28.2163 113.667C27.6992 113.995 27.096 114.159 26.4066 114.159ZM26.4066 113.105C26.9303 113.105 27.3612 112.971 27.6992 112.702C28.0373 112.434 28.2875 112.081 28.4499 111.643C28.6123 111.206 28.6935 110.732 28.6935 110.222C28.6935 109.711 28.6123 109.236 28.4499 108.795C28.2875 108.354 28.0373 107.998 27.6992 107.726C27.3612 107.454 26.9303 107.318 26.4066 107.318C25.8829 107.318 25.4521 107.454 25.114 107.726C24.7759 107.998 24.5257 108.354 24.3633 108.795C24.2009 109.236 24.1197 109.711 24.1197 110.222C24.1197 110.732 24.2009 111.206 24.3633 111.643C24.5257 112.081 24.7759 112.434 25.114 112.702C25.4521 112.971 25.8829 113.105 26.4066 113.105ZM33.905 114.179C33.4211 114.179 32.9819 114.088 32.5875 113.906C32.1931 113.72 31.8799 113.453 31.6479 113.105C31.4159 112.754 31.2999 112.33 31.2999 111.832C31.2999 111.395 31.3861 111.04 31.5584 110.768C31.7308 110.493 31.9611 110.278 32.2495 110.122C32.5378 109.966 32.856 109.85 33.204 109.774C33.5553 109.695 33.9083 109.632 34.263 109.585C34.727 109.526 35.1032 109.481 35.3915 109.451C35.6832 109.418 35.8953 109.363 36.0279 109.287C36.1638 109.211 36.2317 109.078 36.2317 108.889V108.849C36.2317 108.359 36.0975 107.978 35.829 107.706C35.5639 107.434 35.1612 107.298 34.6209 107.298C34.0608 107.298 33.6216 107.421 33.3034 107.666C32.9853 107.911 32.7615 108.173 32.6323 108.452L31.5186 108.054C31.7175 107.59 31.9827 107.229 32.3141 106.97C32.6489 106.708 33.0134 106.526 33.4078 106.423C33.8056 106.317 34.1967 106.264 34.5811 106.264C34.8264 106.264 35.1081 106.294 35.4263 106.354C35.7478 106.41 36.0577 106.528 36.356 106.707C36.6576 106.886 36.9078 107.156 37.1067 107.517C37.3056 107.878 37.405 108.362 37.405 108.969V114H36.2317V112.966H36.1721C36.0925 113.132 35.9599 113.309 35.7743 113.498C35.5887 113.687 35.3418 113.848 35.0336 113.98C34.7253 114.113 34.3491 114.179 33.905 114.179ZM34.084 113.125C34.548 113.125 34.9391 113.034 35.2573 112.852C35.5788 112.669 35.8207 112.434 35.9831 112.146C36.1489 111.857 36.2317 111.554 36.2317 111.236V110.162C36.182 110.222 36.0726 110.276 35.9036 110.326C35.7379 110.372 35.5456 110.414 35.3269 110.45C35.1114 110.483 34.901 110.513 34.6955 110.54C34.4933 110.563 34.3292 110.583 34.2033 110.599C33.8984 110.639 33.6133 110.704 33.3482 110.793C33.0864 110.879 32.8742 111.01 32.7118 111.186C32.5527 111.358 32.4732 111.594 32.4732 111.892C32.4732 112.3 32.624 112.608 32.9256 112.817C33.2305 113.022 33.6167 113.125 34.084 113.125ZM42.43 114.159C41.7937 114.159 41.2319 113.998 40.7447 113.677C40.2575 113.352 39.8763 112.895 39.6012 112.305C39.3261 111.711 39.1886 111.01 39.1886 110.202C39.1886 109.4 39.3261 108.704 39.6012 108.114C39.8763 107.524 40.2591 107.068 40.7496 106.746C41.2402 106.425 41.8069 106.264 42.4499 106.264C42.9471 106.264 43.3398 106.347 43.6282 106.513C43.9199 106.675 44.1419 106.861 44.2944 107.07C44.4502 107.275 44.5711 107.444 44.6573 107.577H44.7567V103.818H45.93V114H44.7965V112.827H44.6573C44.5711 112.966 44.4485 113.142 44.2894 113.354C44.1303 113.562 43.9033 113.75 43.6083 113.915C43.3133 114.078 42.9206 114.159 42.43 114.159ZM42.5891 113.105C43.0598 113.105 43.4575 112.982 43.7823 112.737C44.1071 112.489 44.354 112.146 44.5231 111.708C44.6921 111.267 44.7766 110.759 44.7766 110.182C44.7766 109.612 44.6938 109.113 44.5281 108.685C44.3623 108.254 44.1171 107.92 43.7923 107.681C43.4674 107.439 43.0664 107.318 42.5891 107.318C42.092 107.318 41.6777 107.446 41.3462 107.701C41.0181 107.953 40.7712 108.296 40.6055 108.73C40.4431 109.161 40.3619 109.645 40.3619 110.182C40.3619 110.725 40.4447 111.219 40.6104 111.663C40.7795 112.104 41.0281 112.455 41.3562 112.717C41.6876 112.976 42.0986 113.105 42.5891 113.105ZM52.1793 116.864V106.364H53.3129V107.577H53.4521C53.5382 107.444 53.6576 107.275 53.81 107.07C53.9658 106.861 54.1879 106.675 54.4762 106.513C54.7679 106.347 55.1623 106.264 55.6594 106.264C56.3024 106.264 56.8692 106.425 57.3597 106.746C57.8503 107.068 58.2331 107.524 58.5082 108.114C58.7833 108.704 58.9208 109.4 58.9208 110.202C58.9208 111.01 58.7833 111.711 58.5082 112.305C58.2331 112.895 57.8519 113.352 57.3647 113.677C56.8775 113.998 56.3157 114.159 55.6793 114.159C55.1888 114.159 54.796 114.078 54.5011 113.915C54.2061 113.75 53.979 113.562 53.82 113.354C53.6609 113.142 53.5382 112.966 53.4521 112.827H53.3526V116.864H52.1793ZM53.3327 110.182C53.3327 110.759 53.4173 111.267 53.5863 111.708C53.7553 112.146 54.0022 112.489 54.3271 112.737C54.6519 112.982 55.0496 113.105 55.5202 113.105C56.0108 113.105 56.4201 112.976 56.7482 112.717C57.0797 112.455 57.3282 112.104 57.494 111.663C57.663 111.219 57.7475 110.725 57.7475 110.182C57.7475 109.645 57.6647 109.161 57.4989 108.73C57.3365 108.296 57.0896 107.953 56.7582 107.701C56.43 107.446 56.0174 107.318 55.5202 107.318C55.043 107.318 54.6419 107.439 54.3171 107.681C53.9923 107.92 53.747 108.254 53.5813 108.685C53.4156 109.113 53.3327 109.612 53.3327 110.182ZM60.7106 114V106.364H61.8839V114H60.7106ZM61.3072 105.091C61.0785 105.091 60.8813 105.013 60.7156 104.857C60.5531 104.701 60.4719 104.514 60.4719 104.295C60.4719 104.077 60.5531 103.889 60.7156 103.734C60.8813 103.578 61.0785 103.5 61.3072 103.5C61.5359 103.5 61.7314 103.578 61.8938 103.734C62.0595 103.889 62.1424 104.077 62.1424 104.295C62.1424 104.514 62.0595 104.701 61.8938 104.857C61.7314 105.013 61.5359 105.091 61.3072 105.091ZM67.1351 114.159C66.4192 114.159 65.8027 113.99 65.2857 113.652C64.7686 113.314 64.3709 112.848 64.0925 112.255C63.8141 111.662 63.6749 110.984 63.6749 110.222C63.6749 109.446 63.8174 108.762 64.1025 108.168C64.3908 107.572 64.7918 107.106 65.3056 106.771C65.8226 106.433 66.4258 106.264 67.1152 106.264C67.6522 106.264 68.1361 106.364 68.5669 106.562C68.9978 106.761 69.3508 107.04 69.6259 107.398C69.901 107.756 70.0717 108.173 70.138 108.651H68.9647C68.8752 108.303 68.6763 107.994 68.3681 107.726C68.0632 107.454 67.6522 107.318 67.1351 107.318C66.6777 107.318 66.2767 107.437 65.932 107.676C65.5906 107.911 65.3238 108.245 65.1316 108.675C64.9426 109.103 64.8482 109.605 64.8482 110.182C64.8482 110.772 64.941 111.286 65.1266 111.723C65.3155 112.161 65.5807 112.5 65.9221 112.742C66.2667 112.984 66.6711 113.105 67.1351 113.105C67.44 113.105 67.7168 113.052 67.9654 112.946C68.214 112.84 68.4244 112.688 68.5968 112.489C68.7691 112.29 68.8917 112.051 68.9647 111.773H70.138C70.0717 112.223 69.9076 112.629 69.6458 112.991C69.3873 113.349 69.0442 113.634 68.6167 113.846C68.1924 114.055 67.6986 114.159 67.1351 114.159ZM75.1742 106.364V107.358H71.2168V106.364H75.1742ZM72.3702 104.534H73.5435V111.812C73.5435 112.144 73.5916 112.393 73.6877 112.558C73.7871 112.721 73.9131 112.83 74.0655 112.886C74.2213 112.939 74.3854 112.966 74.5577 112.966C74.687 112.966 74.793 112.959 74.8759 112.946C74.9587 112.929 75.025 112.916 75.0748 112.906L75.3134 113.96C75.2338 113.99 75.1228 114.02 74.9803 114.05C74.8378 114.083 74.6571 114.099 74.4384 114.099C74.1069 114.099 73.7821 114.028 73.464 113.886C73.1491 113.743 72.8873 113.526 72.6784 113.234C72.473 112.943 72.3702 112.575 72.3702 112.131V104.534ZM81.7516 110.878V106.364H82.9249V114H81.7516V112.707H81.6721C81.4931 113.095 81.2147 113.425 80.8368 113.697C80.459 113.965 79.9817 114.099 79.405 114.099C78.9277 114.099 78.5035 113.995 78.1323 113.786C77.7611 113.574 77.4694 113.256 77.2573 112.832C77.0452 112.404 76.9391 111.866 76.9391 111.216V106.364H78.1124V111.136C78.1124 111.693 78.2682 112.137 78.5797 112.469C78.8946 112.8 79.2956 112.966 79.7828 112.966C80.0745 112.966 80.3712 112.891 80.6728 112.742C80.9777 112.593 81.2329 112.364 81.4384 112.056C81.6472 111.748 81.7516 111.355 81.7516 110.878ZM85.0739 114V106.364H86.2074V107.517H86.2869C86.4261 107.139 86.678 106.833 87.0426 106.597C87.4072 106.362 87.8182 106.244 88.2756 106.244C88.3617 106.244 88.4695 106.246 88.5987 106.249C88.728 106.253 88.8258 106.258 88.892 106.264V107.457C88.8523 107.447 88.7611 107.433 88.6186 107.413C88.4794 107.389 88.3319 107.378 88.1761 107.378C87.8049 107.378 87.4735 107.456 87.1818 107.612C86.8935 107.764 86.6648 107.976 86.4957 108.248C86.33 108.516 86.2472 108.823 86.2472 109.168V114H85.0739ZM93.2521 114.159C92.5163 114.159 91.8816 113.997 91.348 113.672C90.8177 113.344 90.4084 112.886 90.12 112.3C89.835 111.71 89.6925 111.024 89.6925 110.241C89.6925 109.459 89.835 108.77 90.12 108.173C90.4084 107.573 90.8094 107.106 91.3232 106.771C91.8402 106.433 92.4434 106.264 93.1328 106.264C93.5305 106.264 93.9233 106.33 94.3111 106.463C94.6989 106.596 95.0518 106.811 95.37 107.109C95.6882 107.404 95.9418 107.795 96.1307 108.283C96.3196 108.77 96.4141 109.37 96.4141 110.082V110.58H90.5277V109.565H95.2209C95.2209 109.134 95.1347 108.75 94.9624 108.412C94.7933 108.074 94.5514 107.807 94.2365 107.612C93.925 107.416 93.5571 107.318 93.1328 107.318C92.6655 107.318 92.2611 107.434 91.9197 107.666C91.5817 107.895 91.3215 108.193 91.1392 108.561C90.9569 108.929 90.8658 109.323 90.8658 109.744V110.42C90.8658 110.997 90.9652 111.486 91.1641 111.887C91.3662 112.285 91.6463 112.588 92.0043 112.797C92.3622 113.002 92.7782 113.105 93.2521 113.105C93.5604 113.105 93.8388 113.062 94.0874 112.976C94.3393 112.886 94.5563 112.754 94.7386 112.578C94.9209 112.399 95.0618 112.177 95.1612 111.912L96.2947 112.23C96.1754 112.615 95.9749 112.953 95.6932 113.244C95.4115 113.533 95.0634 113.758 94.6491 113.92C94.2348 114.08 93.7692 114.159 93.2521 114.159Z" fill="#1C1C1C"/>
<path d="M49.4 16C41.1 16 34.3 22.8 34.3 31.1C34.3 39.4 41.1 46.2 49.4 46.2C57.7 46.2 64.5 39.4 64.5 31.1C64.5 22.8 57.7 16 49.4 16ZM49.4 0C24.9 0 5 19.8 5 44.3C5 68.8 24.9 88.6 49.3 88.6C73.7 88.6 93.7 68.8 93.7 44.3C93.7 19.8 73.8 0 49.4 0ZM49.4 49.2C35.3 49.2 23.2 57.3 17.2 69C11.9 62.1 8.7 53.6 8.7 44.3C8.7 21.9 26.9 3.7 49.3 3.7C71.8 3.7 90 21.9 90 44.3C90 53.6 86.8 62.2 81.5 69.1C75.6 57.3 63.4 49.2 49.4 49.2Z" fill="#FE8678"/>
<circle cx="82" cy="82" r="11" fill="#D9D9D9" fill-opacity="0.75"/>
<path d="M82 77.875L82 86.125" stroke="black" stroke-width="1.5" stroke-linecap="round"/>
<path d="M86.125 82L77.875 82" stroke="black" stroke-width="1.5" stroke-linecap="round"/>
</svg>
