<svg width="390" height="300" viewBox="0 0 390 300" fill="none" xmlns="http://www.w3.org/2000/svg">
    <g clip-path="url(#clip0_52_213)">
    <path d="M121.175 166.15C122.825 163.944 123.917 161.378 124.368 158.667L142.723 136.505L131.89 128.108L114.436 151.493C111.992 152.762 109.887 154.597 108.299 156.848C104.251 162.417 103.845 169.018 107.404 171.583C110.956 174.154 117.122 171.718 121.17 166.15H121.175Z" fill="#FFB6B6"/>
    <path d="M195.518 78.194L172.558 62.8976L125.961 133.581L138.094 146.565L195.518 78.194Z" fill="#FF5F4D"/>
    <path d="M-4 164C-4 164.554 -3.5988 165 -3.10018 165H392.1C392.599 165 393 164.554 393 164C393 163.446 392.599 163 392.1 163H-3.10018C-3.5988 163 -4 163.446 -4 164Z" fill="#3F3D56"/>
    <path d="M156.331 58.4069L153.769 40.8091L176.392 35.0722L179.398 50.6437L156.331 58.4069Z" fill="#FFB6B6"/>
    <path d="M88.0974 246.937L90.7831 271.916L109.273 266.264L106.289 246.342L88.0974 246.937Z" fill="#FFB6B6"/>
    <path d="M153.415 138.397C153.415 138.397 92.8663 149.994 85.7102 167.542C78.554 185.089 86.9038 250.805 86.9038 250.805L107.483 252.887L116.131 177.354C116.131 177.354 168.628 176.461 172.501 170.219C176.375 163.977 175.784 141.372 175.784 141.372L153.415 138.397Z" fill="#2F2E41"/>
    <path d="M88.3394 259.629L76.3469 271.507C76.3469 271.507 55.8807 288.268 69.005 287.376C82.1292 286.483 116.131 278.456 115.832 272.208C115.534 265.961 110.163 253.477 110.163 253.477L88.3338 259.623H88.3394V259.629Z" fill="#2F2E41"/>
    <path d="M158.195 254.133L171.719 275.329L185.778 262.087L174.235 245.55L158.195 254.133Z" fill="#FFB6B6"/>
    <path d="M168.419 127.968C168.419 127.968 119.323 165.15 120.714 184.039C122.11 202.928 158.842 258.124 158.842 258.124L178.21 250.883L152.345 179.369C152.345 179.369 198.992 155.344 199.684 148.035C200.377 140.727 189.786 120.738 189.786 120.738L168.414 127.968H168.419Z" fill="#2F2E41"/>
    <path d="M164.461 263.99L157.632 282.105C157.632 282.105 147.728 305.428 159.09 298.821C170.452 292.214 197.348 269.98 194.302 264.512C191.256 259.045 180.885 250.232 180.885 250.232L164.461 263.99Z" fill="#2F2E41"/>
    <path d="M164.259 46.3214C174.427 46.3214 182.67 38.1033 182.67 27.9657C182.67 17.8282 174.427 9.61005 164.259 9.61005C154.09 9.61005 145.847 17.8282 145.847 27.9657C145.847 38.1033 154.09 46.3214 164.259 46.3214Z" fill="#FFB6B6"/>
    <path d="M177.873 42.0552L154.907 59.0076L151.326 132.756L142.678 141.08L172.501 170.225C172.501 170.225 205.309 160.115 202.027 144.65L198.744 129.186L199.927 111.93C201.661 86.6982 193.778 61.7469 177.861 42.0609H177.873V42.0552Z" fill="#FF5F4D"/>
    <path d="M177.501 42.4369L166.297 42.0665C166.297 42.0665 169.202 24.564 162.277 24.6594L156.016 21.69C156.016 21.69 140.358 11.1706 147.537 6.75847C154.721 2.35199 159.732 -1.61104 163.836 0.662368C167.946 2.93578 176.268 3.82269 176.268 3.82269C176.268 3.82269 191.031 10.0198 190.592 15.201C190.152 20.3821 186.797 43.0769 177.495 42.4313H177.501V42.4369Z" fill="#2F2E41"/>
    <path d="M128.63 167.334C130.167 165.049 131.135 162.434 131.451 159.705L148.691 136.674L137.458 128.815L121.181 153.026C118.799 154.412 116.789 156.354 115.314 158.673C111.542 164.438 111.469 171.044 115.145 173.436C118.822 175.827 124.858 173.093 128.63 167.334Z" fill="#FFB6B6"/>
    <path d="M198.536 75.8364L174.855 61.6851L131.8 134.575L144.558 146.941L198.536 75.8364Z" fill="#FF5F4D"/>
    <path d="M318.946 184.719L324.002 232.993L304.723 234.537L303.62 187.682L318.946 184.719Z" fill="#FFB6B6"/>
    <path d="M324.232 222.345L339.772 228.98C339.772 228.98 364.996 237.035 352.468 241.032C339.941 245.028 305.365 250.069 303.333 244.153C301.3 238.236 301.672 224.658 301.672 224.658L324.232 222.35V222.345Z" fill="#2F2E41"/>
    <path d="M241.202 123.028L249.214 126.856C249.214 126.856 308.096 123.561 312.093 134.451C316.091 145.347 323.821 210.439 323.821 210.439L303.034 211.769L293.975 167.665L241.208 123.028H241.202Z" fill="#2F2E41"/>
    <path d="M296.97 136.197C294.994 134.277 292.59 132.857 289.949 132.054L270.333 110.998L260.554 120.597L281.504 140.923C282.444 143.505 283.993 145.829 286.019 147.693C291.025 152.431 297.533 153.694 300.557 150.522C303.58 147.35 301.976 140.934 296.97 136.202V136.197Z" fill="#FFB6B6"/>
    <path d="M219.312 51.1489L201.075 71.8228L265.227 127.182L279.73 116.904L219.312 51.1489Z" fill="#FF5F4D"/>
    <path d="M289.612 183.731L258.566 221.116L243.961 208.474L276.758 174.89L289.612 183.731Z" fill="#FFB6B6"/>
    <path d="M265.795 210.871L271.921 226.577C271.921 226.577 283.807 250.176 272.175 244.052C260.542 237.928 232.734 216.838 235.544 211.247C238.353 205.656 248.347 196.417 248.347 196.417L265.795 210.866V210.871Z" fill="#2F2E41"/>
    <path d="M206.03 138.173C206.03 138.173 194.302 165.802 213.49 165.802C232.678 165.802 277.715 164.207 277.715 164.207L264.388 187.587L280.113 195.558C280.113 195.558 313.158 164.471 311.024 150.393C308.89 136.315 249.214 126.856 249.214 126.856L237.16 130.016L206.03 138.173Z" fill="#2F2E41"/>
    <path d="M204.442 6.24203C204.442 6.24203 225.128 7.33664 226.98 15.2515C228.833 23.1607 224.593 31.2383 231.248 31.1541C237.903 31.0699 240.228 34.0225 240.228 34.0225C240.228 34.0225 233.438 53.1921 222.774 54.2923C212.111 55.3926 204.442 6.24203 204.442 6.24203Z" fill="#2F2E41"/>
    <path d="M218.315 59.1086L218.957 41.3367L195.845 38.0698L194.538 53.8714L218.315 59.1086Z" fill="#FFB6B6"/>
    <path d="M224.593 23.8736C227.819 33.4837 222.617 43.8852 212.978 47.1017C203.338 50.3181 192.906 45.1314 189.679 35.5213C186.453 25.9112 191.656 15.5097 201.295 12.2933C210.934 9.0768 221.367 14.2635 224.593 23.8736Z" fill="#FFB6B6"/>
    <path d="M221.446 52.148L200.287 47.7528L196.346 82.9934C195.338 86.9003 197.286 101.742 198.322 105.638L204.695 148.383L249.214 126.851L239.074 101.804L241.275 83.7849L221.44 52.148H221.446Z" fill="#FF5F4D"/>
    <path d="M231.501 99.4125C228.799 99.9738 226.276 101.169 224.131 102.904L195.653 107.361L198.175 120.811L226.789 114.838C229.463 115.5 232.261 115.517 234.941 114.888C241.681 113.395 246.365 108.719 245.414 104.448C244.462 100.176 238.229 97.9193 231.496 99.4125H231.501Z" fill="#FFB6B6"/>
    <path d="M214.672 74.3769L195.569 58.0814L167.383 107.361C166.55 118.846 177.062 127.883 188.334 125.363L213.614 119.216L208.789 98.9353L194.578 98.4133L214.684 74.3713H214.672V74.3769Z" fill="#FF5F4D"/>
    <path d="M192.973 9.80091C192.973 9.80091 170.317 16.0261 175.457 24.9738C180.598 33.9215 186.633 36.4363 185.884 41.4883C185.136 46.5403 191.098 66.1365 200.169 63.1109C209.239 60.0853 222.78 54.2923 222.78 54.2923C222.78 54.2923 203.659 38.2774 207.026 35.5606C210.393 32.8437 199.769 13.6685 199.769 13.6685C199.769 13.6685 210.551 8.47055 216.266 10.0311C221.98 11.5916 225.167 11.0639 225.167 11.0639C225.167 11.0639 209.599 -3.46905 202.68 2.30709C195.76 8.08323 192.979 9.80653 192.979 9.80653C192.979 9.80653 192.979 9.80653 192.979 9.80091H192.973Z" fill="#2F2E41"/>
    </g>
    <defs>
    <clipPath id="clip0_52_213">
    <rect width="390" height="300" fill="white"/>
    </clipPath>
    </defs>
    </svg>
    